<?xml version="1.0" encoding="UTF-8"?>
<svg width="48" height="48" viewBox="0 0 48 48" fill="none" xmlns="http://www.w3.org/2000/svg">
  <!-- <path d="M244 122C183.5 122 134 171.5 134 232C134 292.5 183.5 342 244 342C304.5 342 354 292.5 354 232C354 171.5 304.5 122 244 122ZM244 318C196.7 318 158 279.3 158 232C158 184.7 196.7 146 244 146C291.3 146 330 184.7 330 232C330 279.3 291.3 318 244 318Z" fill="white"/>
  <path d="M244 171C210.4 171 183 198.4 183 232C183 265.6 210.4 293 244 293C277.6 293 305 265.6 305 232C305 198.4 277.6 171 244 171Z" fill="white"/> -->
  <path id="Vector" d="M23 0C18.451 0 14.0042 1.34892 10.2219 3.8762C6.43961 6.40346 3.49158 9.99555 1.75078 14.1983C0.00996463 18.4009 -0.445509 23.0255 0.441947 27.487C1.32941 31.9487 3.51996 36.0467 6.73654 39.2631C9.95315 42.4798 14.0514 44.6704 18.513 45.5581C22.9745 46.4455 27.599 45.99 31.8018 44.2494C36.0046 42.5083 39.5963 39.5603 42.1239 35.778C44.6511 31.9958 46 27.5489 46 22.9999C46 16.9 43.5769 11.0498 39.2635 6.73653C34.95 2.4232 29.1 0 23 0ZM37.1284 26.3612C37.1284 26.8212 35.0519 26.8869 35.0519 27.347C35.0519 27.8069 37.1056 28.4312 37.1056 29.0655C37.1056 29.8408 32.8735 29.9557 32.8735 30.7313C32.8735 31.5593 36.0836 31.3029 36.0836 32.2C36.0836 33.2579 28.0206 32.765 28.0206 33.8658C28.0206 34.2862 29.0524 34.4605 30.3437 34.5986C31.0534 34.6773 30.8988 35.0256 30.4949 35.2558C28.2375 36.6329 25.6443 37.3617 23 37.3617C20.3557 37.3617 17.7625 36.6329 15.5053 35.2558C15.1044 35.0093 14.9467 34.661 15.6564 34.5986C16.9477 34.4605 17.9827 34.27 17.9827 33.8658C17.9827 32.765 9.91627 33.2579 9.91627 32.2C9.91627 31.3029 13.1297 31.5428 13.1297 30.7313C13.1297 29.9557 8.89448 29.8408 8.89448 29.0655C8.89448 28.4312 10.9514 27.8168 10.9514 27.347C10.9514 26.8771 8.87146 26.8245 8.87146 26.3612C8.87146 25.898 10.3895 25.5989 10.3895 25.2704C10.3895 24.6494 8.62501 25.7797 8.62501 22.9999C8.62501 19.1875 10.1396 15.5311 12.8354 12.8353C15.5312 10.1395 19.1875 8.62497 23 8.62497C26.8125 8.62497 30.4689 10.1395 33.1647 12.8353C35.8605 15.5311 37.3749 19.1875 37.3749 22.9999C37.3749 25.7797 35.6107 24.6428 35.6107 25.2704C35.6107 25.5989 37.1284 25.8651 37.1284 26.3612Z" fill="#4F46E5"/>
  <!-- <circle cx="244" cy="244" r="244" fill="white"/> -->
</svg>
